<svg width="57" height="18" viewBox="0 0 57 18" fill="none" xmlns="http://www.w3.org/2000/svg">
<mask id="path-1-outside-1_108_3463" maskUnits="userSpaceOnUse" x="0.23999" y="0.288086" width="57" height="17" fill="black">
<rect fill="white" x="0.23999" y="0.288086" width="57" height="17"/>
<path d="M7.02399 3.88009H4.21599V5.00009H5.71199C5.51199 5.53609 5.02399 5.86409 4.27999 5.86409C3.19199 5.86409 2.51999 5.16809 2.51999 4.21609C2.51999 3.23209 3.22399 2.53609 4.16799 2.53609C4.79999 2.53609 5.30399 2.82409 5.53599 3.19209L6.62399 2.56809C6.15199 1.81609 5.24799 1.28809 4.17599 1.28809C2.52799 1.28809 1.23999 2.58409 1.23999 4.20809C1.23999 5.81609 2.50399 7.11209 4.26399 7.11209C5.83199 7.11209 7.02399 6.07209 7.02399 4.36009V3.88009Z"/>
<path d="M8.62562 5.76809V4.77609H10.6256V3.56009H8.62562V2.63209H10.8256V1.40009H7.34562V7.00009H10.8656V5.76809H8.62562Z"/>
<path d="M14.9478 1.40009H10.7878V2.63209H12.2278V7.00009H13.5078V2.63209H14.9478V1.40009Z"/>
<path d="M16.7081 1.40009V7.00009H17.9881V1.40009H16.7081Z"/>
<path d="M22.3103 1.40009H18.1503V2.63209H19.5903V7.00009H20.8703V2.63209H22.3103V1.40009Z"/>
<path d="M26.7426 7.11209C28.3506 7.11209 29.6546 5.84809 29.6546 4.20009C29.6546 2.55209 28.3506 1.28809 26.7426 1.28809C25.1346 1.28809 23.8306 2.55209 23.8306 4.20009C23.8306 5.84809 25.1346 7.11209 26.7426 7.11209ZM26.7426 5.86409C25.8306 5.86409 25.1106 5.20009 25.1106 4.20009C25.1106 3.20009 25.8306 2.53609 26.7426 2.53609C27.6546 2.53609 28.3746 3.20009 28.3746 4.20009C28.3746 5.20009 27.6546 5.86409 26.7426 5.86409Z"/>
<path d="M33.0953 1.40009V4.44009L30.9353 1.40009H29.9753V7.00009H31.2553V3.96009L33.4153 7.00009H34.3753V1.40009H33.0953Z"/>
<path d="M7.02399 13.3921V13.6081C7.02399 14.3068 6.77599 14.8961 6.27999 15.3761C5.78399 15.8508 5.13066 16.0881 4.31999 16.0881C3.46666 16.0881 2.76266 15.8108 2.20799 15.2561C1.65332 14.6961 1.37599 14.0108 1.37599 13.2001C1.37599 12.3894 1.65066 11.7068 2.19999 11.1521C2.74932 10.5921 3.44532 10.3121 4.28799 10.3121C4.79999 10.3121 5.26932 10.4348 5.69599 10.6801C6.12799 10.9254 6.46132 11.2534 6.69599 11.6641L6.31999 11.8881C6.13332 11.5361 5.85599 11.2534 5.48799 11.0401C5.12532 10.8268 4.72532 10.7201 4.28799 10.7201C3.56266 10.7201 2.96532 10.9601 2.49599 11.4401C2.03199 11.9148 1.79999 12.5014 1.79999 13.2001C1.79999 13.8988 2.03466 14.4881 2.50399 14.9681C2.97332 15.4428 3.57866 15.6801 4.31999 15.6801C4.97599 15.6801 5.50666 15.5014 5.91199 15.1441C6.31732 14.7868 6.54399 14.3361 6.59199 13.7921H4.21599V13.3921H7.02399Z"/>
<path d="M12.7026 15.2481C12.1426 15.8081 11.4599 16.0881 10.6546 16.0881C9.84928 16.0881 9.16662 15.8081 8.60662 15.2481C8.04662 14.6828 7.76662 14.0001 7.76662 13.2001C7.76662 12.4001 8.04662 11.7201 8.60662 11.1601C9.16662 10.5948 9.84928 10.3121 10.6546 10.3121C11.4599 10.3121 12.1426 10.5948 12.7026 11.1601C13.2626 11.7201 13.5426 12.4001 13.5426 13.2001C13.5426 14.0001 13.2626 14.6828 12.7026 15.2481ZM8.90262 14.9601C9.38262 15.4401 9.96662 15.6801 10.6546 15.6801C11.3426 15.6801 11.9239 15.4401 12.3986 14.9601C12.8786 14.4748 13.1186 13.8881 13.1186 13.2001C13.1186 12.5121 12.8786 11.9281 12.3986 11.4481C11.9239 10.9628 11.3426 10.7201 10.6546 10.7201C9.96662 10.7201 9.38262 10.9628 8.90262 11.4481C8.42795 11.9281 8.19062 12.5121 8.19062 13.2001C8.19062 13.8881 8.42795 14.4748 8.90262 14.9601Z"/>
<path d="M19.2339 15.2481C18.6739 15.8081 17.9912 16.0881 17.1859 16.0881C16.3805 16.0881 15.6979 15.8081 15.1379 15.2481C14.5779 14.6828 14.2979 14.0001 14.2979 13.2001C14.2979 12.4001 14.5779 11.7201 15.1379 11.1601C15.6979 10.5948 16.3805 10.3121 17.1859 10.3121C17.9912 10.3121 18.6739 10.5948 19.2339 11.1601C19.7939 11.7201 20.0739 12.4001 20.0739 13.2001C20.0739 14.0001 19.7939 14.6828 19.2339 15.2481ZM15.4339 14.9601C15.9139 15.4401 16.4979 15.6801 17.1859 15.6801C17.8739 15.6801 18.4552 15.4401 18.9299 14.9601C19.4099 14.4748 19.6499 13.8881 19.6499 13.2001C19.6499 12.5121 19.4099 11.9281 18.9299 11.4481C18.4552 10.9628 17.8739 10.7201 17.1859 10.7201C16.4979 10.7201 15.9139 10.9628 15.4339 11.4481C14.9592 11.9281 14.7219 12.5121 14.7219 13.2001C14.7219 13.8881 14.9592 14.4748 15.4339 14.9601Z"/>
<path d="M26.4771 13.3921V13.6081C26.4771 14.3068 26.2291 14.8961 25.7331 15.3761C25.2371 15.8508 24.5838 16.0881 23.7731 16.0881C22.9198 16.0881 22.2158 15.8108 21.6611 15.2561C21.1064 14.6961 20.8291 14.0108 20.8291 13.2001C20.8291 12.3894 21.1038 11.7068 21.6531 11.1521C22.2024 10.5921 22.8984 10.3121 23.7411 10.3121C24.2531 10.3121 24.7224 10.4348 25.1491 10.6801C25.5811 10.9254 25.9144 11.2534 26.1491 11.6641L25.7731 11.8881C25.5864 11.5361 25.3091 11.2534 24.9411 11.0401C24.5784 10.8268 24.1784 10.7201 23.7411 10.7201C23.0158 10.7201 22.4184 10.9601 21.9491 11.4401C21.4851 11.9148 21.2531 12.5014 21.2531 13.2001C21.2531 13.8988 21.4878 14.4881 21.9571 14.9681C22.4264 15.4428 23.0318 15.6801 23.7731 15.6801C24.4291 15.6801 24.9598 15.5014 25.3651 15.1441C25.7704 14.7868 25.9971 14.3361 26.0451 13.7921H23.6691V13.3921H26.4771Z"/>
<path d="M27.9637 15.6001H30.6037V16.0001H27.5397V10.4001H27.9637V15.6001Z"/>
<path d="M31.9091 15.6001H34.7091V16.0001H31.4851V10.4001H34.6691V10.8001H31.9091V12.9761H34.4691V13.3761H31.9091V15.6001Z"/>
<path d="M39.7875 10.4001C40.2888 10.4001 40.7048 10.5654 41.0355 10.8961C41.3662 11.2268 41.5315 11.6401 41.5315 12.1361C41.5315 12.6321 41.3662 13.0454 41.0355 13.3761C40.7048 13.7014 40.2888 13.8641 39.7875 13.8641H38.3075V16.0001H37.8835V10.4001H39.7875ZM39.7875 13.4641C40.1715 13.4641 40.4862 13.3388 40.7315 13.0881C40.9822 12.8374 41.1075 12.5201 41.1075 12.1361C41.1075 11.7468 40.9822 11.4268 40.7315 11.1761C40.4862 10.9254 40.1715 10.8001 39.7875 10.8001H38.3075V13.4641H39.7875Z"/>
<path d="M43.0028 15.6001H45.6428V16.0001H42.5788V10.4001H43.0028V15.6001Z"/>
<path d="M50.4484 16.0001L49.9044 14.5761H47.0964L46.5524 16.0001H46.1044L48.2804 10.4001H48.7284L50.8964 16.0001H50.4484ZM47.2564 14.1761H49.7524L48.5044 10.9201L47.2564 14.1761Z"/>
<path d="M54.8809 10.4001L52.8409 13.6961V16.0001H52.4169V13.6961L50.3769 10.4001H50.8569L52.6329 13.2881L54.4009 10.4001H54.8809Z"/>
</mask>
<path d="M7.02399 3.88009H4.21599V5.00009H5.71199C5.51199 5.53609 5.02399 5.86409 4.27999 5.86409C3.19199 5.86409 2.51999 5.16809 2.51999 4.21609C2.51999 3.23209 3.22399 2.53609 4.16799 2.53609C4.79999 2.53609 5.30399 2.82409 5.53599 3.19209L6.62399 2.56809C6.15199 1.81609 5.24799 1.28809 4.17599 1.28809C2.52799 1.28809 1.23999 2.58409 1.23999 4.20809C1.23999 5.81609 2.50399 7.11209 4.26399 7.11209C5.83199 7.11209 7.02399 6.07209 7.02399 4.36009V3.88009Z" fill="white"/>
<path d="M8.62562 5.76809V4.77609H10.6256V3.56009H8.62562V2.63209H10.8256V1.40009H7.34562V7.00009H10.8656V5.76809H8.62562Z" fill="white"/>
<path d="M14.9478 1.40009H10.7878V2.63209H12.2278V7.00009H13.5078V2.63209H14.9478V1.40009Z" fill="white"/>
<path d="M16.7081 1.40009V7.00009H17.9881V1.40009H16.7081Z" fill="white"/>
<path d="M22.3103 1.40009H18.1503V2.63209H19.5903V7.00009H20.8703V2.63209H22.3103V1.40009Z" fill="white"/>
<path d="M26.7426 7.11209C28.3506 7.11209 29.6546 5.84809 29.6546 4.20009C29.6546 2.55209 28.3506 1.28809 26.7426 1.28809C25.1346 1.28809 23.8306 2.55209 23.8306 4.20009C23.8306 5.84809 25.1346 7.11209 26.7426 7.11209ZM26.7426 5.86409C25.8306 5.86409 25.1106 5.20009 25.1106 4.20009C25.1106 3.20009 25.8306 2.53609 26.7426 2.53609C27.6546 2.53609 28.3746 3.20009 28.3746 4.20009C28.3746 5.20009 27.6546 5.86409 26.7426 5.86409Z" fill="white"/>
<path d="M33.0953 1.40009V4.44009L30.9353 1.40009H29.9753V7.00009H31.2553V3.96009L33.4153 7.00009H34.3753V1.40009H33.0953Z" fill="white"/>
<path d="M7.02399 13.3921V13.6081C7.02399 14.3068 6.77599 14.8961 6.27999 15.3761C5.78399 15.8508 5.13066 16.0881 4.31999 16.0881C3.46666 16.0881 2.76266 15.8108 2.20799 15.2561C1.65332 14.6961 1.37599 14.0108 1.37599 13.2001C1.37599 12.3894 1.65066 11.7068 2.19999 11.1521C2.74932 10.5921 3.44532 10.3121 4.28799 10.3121C4.79999 10.3121 5.26932 10.4348 5.69599 10.6801C6.12799 10.9254 6.46132 11.2534 6.69599 11.6641L6.31999 11.8881C6.13332 11.5361 5.85599 11.2534 5.48799 11.0401C5.12532 10.8268 4.72532 10.7201 4.28799 10.7201C3.56266 10.7201 2.96532 10.9601 2.49599 11.4401C2.03199 11.9148 1.79999 12.5014 1.79999 13.2001C1.79999 13.8988 2.03466 14.4881 2.50399 14.9681C2.97332 15.4428 3.57866 15.6801 4.31999 15.6801C4.97599 15.6801 5.50666 15.5014 5.91199 15.1441C6.31732 14.7868 6.54399 14.3361 6.59199 13.7921H4.21599V13.3921H7.02399Z" fill="white"/>
<path d="M12.7026 15.2481C12.1426 15.8081 11.4599 16.0881 10.6546 16.0881C9.84928 16.0881 9.16662 15.8081 8.60662 15.2481C8.04662 14.6828 7.76662 14.0001 7.76662 13.2001C7.76662 12.4001 8.04662 11.7201 8.60662 11.1601C9.16662 10.5948 9.84928 10.3121 10.6546 10.3121C11.4599 10.3121 12.1426 10.5948 12.7026 11.1601C13.2626 11.7201 13.5426 12.4001 13.5426 13.2001C13.5426 14.0001 13.2626 14.6828 12.7026 15.2481ZM8.90262 14.9601C9.38262 15.4401 9.96662 15.6801 10.6546 15.6801C11.3426 15.6801 11.9239 15.4401 12.3986 14.9601C12.8786 14.4748 13.1186 13.8881 13.1186 13.2001C13.1186 12.5121 12.8786 11.9281 12.3986 11.4481C11.9239 10.9628 11.3426 10.7201 10.6546 10.7201C9.96662 10.7201 9.38262 10.9628 8.90262 11.4481C8.42795 11.9281 8.19062 12.5121 8.19062 13.2001C8.19062 13.8881 8.42795 14.4748 8.90262 14.9601Z" fill="white"/>
<path d="M19.2339 15.2481C18.6739 15.8081 17.9912 16.0881 17.1859 16.0881C16.3805 16.0881 15.6979 15.8081 15.1379 15.2481C14.5779 14.6828 14.2979 14.0001 14.2979 13.2001C14.2979 12.4001 14.5779 11.7201 15.1379 11.1601C15.6979 10.5948 16.3805 10.3121 17.1859 10.3121C17.9912 10.3121 18.6739 10.5948 19.2339 11.1601C19.7939 11.7201 20.0739 12.4001 20.0739 13.2001C20.0739 14.0001 19.7939 14.6828 19.2339 15.2481ZM15.4339 14.9601C15.9139 15.4401 16.4979 15.6801 17.1859 15.6801C17.8739 15.6801 18.4552 15.4401 18.9299 14.9601C19.4099 14.4748 19.6499 13.8881 19.6499 13.2001C19.6499 12.5121 19.4099 11.9281 18.9299 11.4481C18.4552 10.9628 17.8739 10.7201 17.1859 10.7201C16.4979 10.7201 15.9139 10.9628 15.4339 11.4481C14.9592 11.9281 14.7219 12.5121 14.7219 13.2001C14.7219 13.8881 14.9592 14.4748 15.4339 14.9601Z" fill="white"/>
<path d="M26.4771 13.3921V13.6081C26.4771 14.3068 26.2291 14.8961 25.7331 15.3761C25.2371 15.8508 24.5838 16.0881 23.7731 16.0881C22.9198 16.0881 22.2158 15.8108 21.6611 15.2561C21.1064 14.6961 20.8291 14.0108 20.8291 13.2001C20.8291 12.3894 21.1038 11.7068 21.6531 11.1521C22.2024 10.5921 22.8984 10.3121 23.7411 10.3121C24.2531 10.3121 24.7224 10.4348 25.1491 10.6801C25.5811 10.9254 25.9144 11.2534 26.1491 11.6641L25.7731 11.8881C25.5864 11.5361 25.3091 11.2534 24.9411 11.0401C24.5784 10.8268 24.1784 10.7201 23.7411 10.7201C23.0158 10.7201 22.4184 10.9601 21.9491 11.4401C21.4851 11.9148 21.2531 12.5014 21.2531 13.2001C21.2531 13.8988 21.4878 14.4881 21.9571 14.9681C22.4264 15.4428 23.0318 15.6801 23.7731 15.6801C24.4291 15.6801 24.9598 15.5014 25.3651 15.1441C25.7704 14.7868 25.9971 14.3361 26.0451 13.7921H23.6691V13.3921H26.4771Z" fill="white"/>
<path d="M27.9637 15.6001H30.6037V16.0001H27.5397V10.4001H27.9637V15.6001Z" fill="white"/>
<path d="M31.9091 15.6001H34.7091V16.0001H31.4851V10.4001H34.6691V10.8001H31.9091V12.9761H34.4691V13.3761H31.9091V15.6001Z" fill="white"/>
<path d="M39.7875 10.4001C40.2888 10.4001 40.7048 10.5654 41.0355 10.8961C41.3662 11.2268 41.5315 11.6401 41.5315 12.1361C41.5315 12.6321 41.3662 13.0454 41.0355 13.3761C40.7048 13.7014 40.2888 13.8641 39.7875 13.8641H38.3075V16.0001H37.8835V10.4001H39.7875ZM39.7875 13.4641C40.1715 13.4641 40.4862 13.3388 40.7315 13.0881C40.9822 12.8374 41.1075 12.5201 41.1075 12.1361C41.1075 11.7468 40.9822 11.4268 40.7315 11.1761C40.4862 10.9254 40.1715 10.8001 39.7875 10.8001H38.3075V13.4641H39.7875Z" fill="white"/>
<path d="M43.0028 15.6001H45.6428V16.0001H42.5788V10.4001H43.0028V15.6001Z" fill="white"/>
<path d="M50.4484 16.0001L49.9044 14.5761H47.0964L46.5524 16.0001H46.1044L48.2804 10.4001H48.7284L50.8964 16.0001H50.4484ZM47.2564 14.1761H49.7524L48.5044 10.9201L47.2564 14.1761Z" fill="white"/>
<path d="M54.8809 10.4001L52.8409 13.6961V16.0001H52.4169V13.6961L50.3769 10.4001H50.8569L52.6329 13.2881L54.4009 10.4001H54.8809Z" fill="white"/>
<path d="M7.02399 3.88009H4.21599V5.00009H5.71199C5.51199 5.53609 5.02399 5.86409 4.27999 5.86409C3.19199 5.86409 2.51999 5.16809 2.51999 4.21609C2.51999 3.23209 3.22399 2.53609 4.16799 2.53609C4.79999 2.53609 5.30399 2.82409 5.53599 3.19209L6.62399 2.56809C6.15199 1.81609 5.24799 1.28809 4.17599 1.28809C2.52799 1.28809 1.23999 2.58409 1.23999 4.20809C1.23999 5.81609 2.50399 7.11209 4.26399 7.11209C5.83199 7.11209 7.02399 6.07209 7.02399 4.36009V3.88009Z" stroke="black" stroke-width="2" mask="url(#path-1-outside-1_108_3463)"/>
<path d="M8.62562 5.76809V4.77609H10.6256V3.56009H8.62562V2.63209H10.8256V1.40009H7.34562V7.00009H10.8656V5.76809H8.62562Z" stroke="black" stroke-width="2" mask="url(#path-1-outside-1_108_3463)"/>
<path d="M14.9478 1.40009H10.7878V2.63209H12.2278V7.00009H13.5078V2.63209H14.9478V1.40009Z" stroke="black" stroke-width="2" mask="url(#path-1-outside-1_108_3463)"/>
<path d="M16.7081 1.40009V7.00009H17.9881V1.40009H16.7081Z" stroke="black" stroke-width="2" mask="url(#path-1-outside-1_108_3463)"/>
<path d="M22.3103 1.40009H18.1503V2.63209H19.5903V7.00009H20.8703V2.63209H22.3103V1.40009Z" stroke="black" stroke-width="2" mask="url(#path-1-outside-1_108_3463)"/>
<path d="M26.7426 7.11209C28.3506 7.11209 29.6546 5.84809 29.6546 4.20009C29.6546 2.55209 28.3506 1.28809 26.7426 1.28809C25.1346 1.28809 23.8306 2.55209 23.8306 4.20009C23.8306 5.84809 25.1346 7.11209 26.7426 7.11209ZM26.7426 5.86409C25.8306 5.86409 25.1106 5.20009 25.1106 4.20009C25.1106 3.20009 25.8306 2.53609 26.7426 2.53609C27.6546 2.53609 28.3746 3.20009 28.3746 4.20009C28.3746 5.20009 27.6546 5.86409 26.7426 5.86409Z" stroke="black" stroke-width="2" mask="url(#path-1-outside-1_108_3463)"/>
<path d="M33.0953 1.40009V4.44009L30.9353 1.40009H29.9753V7.00009H31.2553V3.96009L33.4153 7.00009H34.3753V1.40009H33.0953Z" stroke="black" stroke-width="2" mask="url(#path-1-outside-1_108_3463)"/>
<path d="M7.02399 13.3921V13.6081C7.02399 14.3068 6.77599 14.8961 6.27999 15.3761C5.78399 15.8508 5.13066 16.0881 4.31999 16.0881C3.46666 16.0881 2.76266 15.8108 2.20799 15.2561C1.65332 14.6961 1.37599 14.0108 1.37599 13.2001C1.37599 12.3894 1.65066 11.7068 2.19999 11.1521C2.74932 10.5921 3.44532 10.3121 4.28799 10.3121C4.79999 10.3121 5.26932 10.4348 5.69599 10.6801C6.12799 10.9254 6.46132 11.2534 6.69599 11.6641L6.31999 11.8881C6.13332 11.5361 5.85599 11.2534 5.48799 11.0401C5.12532 10.8268 4.72532 10.7201 4.28799 10.7201C3.56266 10.7201 2.96532 10.9601 2.49599 11.4401C2.03199 11.9148 1.79999 12.5014 1.79999 13.2001C1.79999 13.8988 2.03466 14.4881 2.50399 14.9681C2.97332 15.4428 3.57866 15.6801 4.31999 15.6801C4.97599 15.6801 5.50666 15.5014 5.91199 15.1441C6.31732 14.7868 6.54399 14.3361 6.59199 13.7921H4.21599V13.3921H7.02399Z" stroke="black" stroke-width="2" mask="url(#path-1-outside-1_108_3463)"/>
<path d="M12.7026 15.2481C12.1426 15.8081 11.4599 16.0881 10.6546 16.0881C9.84928 16.0881 9.16662 15.8081 8.60662 15.2481C8.04662 14.6828 7.76662 14.0001 7.76662 13.2001C7.76662 12.4001 8.04662 11.7201 8.60662 11.1601C9.16662 10.5948 9.84928 10.3121 10.6546 10.3121C11.4599 10.3121 12.1426 10.5948 12.7026 11.1601C13.2626 11.7201 13.5426 12.4001 13.5426 13.2001C13.5426 14.0001 13.2626 14.6828 12.7026 15.2481ZM8.90262 14.9601C9.38262 15.4401 9.96662 15.6801 10.6546 15.6801C11.3426 15.6801 11.9239 15.4401 12.3986 14.9601C12.8786 14.4748 13.1186 13.8881 13.1186 13.2001C13.1186 12.5121 12.8786 11.9281 12.3986 11.4481C11.9239 10.9628 11.3426 10.7201 10.6546 10.7201C9.96662 10.7201 9.38262 10.9628 8.90262 11.4481C8.42795 11.9281 8.19062 12.5121 8.19062 13.2001C8.19062 13.8881 8.42795 14.4748 8.90262 14.9601Z" stroke="black" stroke-width="2" mask="url(#path-1-outside-1_108_3463)"/>
<path d="M19.2339 15.2481C18.6739 15.8081 17.9912 16.0881 17.1859 16.0881C16.3805 16.0881 15.6979 15.8081 15.1379 15.2481C14.5779 14.6828 14.2979 14.0001 14.2979 13.2001C14.2979 12.4001 14.5779 11.7201 15.1379 11.1601C15.6979 10.5948 16.3805 10.3121 17.1859 10.3121C17.9912 10.3121 18.6739 10.5948 19.2339 11.1601C19.7939 11.7201 20.0739 12.4001 20.0739 13.2001C20.0739 14.0001 19.7939 14.6828 19.2339 15.2481ZM15.4339 14.9601C15.9139 15.4401 16.4979 15.6801 17.1859 15.6801C17.8739 15.6801 18.4552 15.4401 18.9299 14.9601C19.4099 14.4748 19.6499 13.8881 19.6499 13.2001C19.6499 12.5121 19.4099 11.9281 18.9299 11.4481C18.4552 10.9628 17.8739 10.7201 17.1859 10.7201C16.4979 10.7201 15.9139 10.9628 15.4339 11.4481C14.9592 11.9281 14.7219 12.5121 14.7219 13.2001C14.7219 13.8881 14.9592 14.4748 15.4339 14.9601Z" stroke="black" stroke-width="2" mask="url(#path-1-outside-1_108_3463)"/>
<path d="M26.4771 13.3921V13.6081C26.4771 14.3068 26.2291 14.8961 25.7331 15.3761C25.2371 15.8508 24.5838 16.0881 23.7731 16.0881C22.9198 16.0881 22.2158 15.8108 21.6611 15.2561C21.1064 14.6961 20.8291 14.0108 20.8291 13.2001C20.8291 12.3894 21.1038 11.7068 21.6531 11.1521C22.2024 10.5921 22.8984 10.3121 23.7411 10.3121C24.2531 10.3121 24.7224 10.4348 25.1491 10.6801C25.5811 10.9254 25.9144 11.2534 26.1491 11.6641L25.7731 11.8881C25.5864 11.5361 25.3091 11.2534 24.9411 11.0401C24.5784 10.8268 24.1784 10.7201 23.7411 10.7201C23.0158 10.7201 22.4184 10.9601 21.9491 11.4401C21.4851 11.9148 21.2531 12.5014 21.2531 13.2001C21.2531 13.8988 21.4878 14.4881 21.9571 14.9681C22.4264 15.4428 23.0318 15.6801 23.7731 15.6801C24.4291 15.6801 24.9598 15.5014 25.3651 15.1441C25.7704 14.7868 25.9971 14.3361 26.0451 13.7921H23.6691V13.3921H26.4771Z" stroke="black" stroke-width="2" mask="url(#path-1-outside-1_108_3463)"/>
<path d="M27.9637 15.6001H30.6037V16.0001H27.5397V10.4001H27.9637V15.6001Z" stroke="black" stroke-width="2" mask="url(#path-1-outside-1_108_3463)"/>
<path d="M31.9091 15.6001H34.7091V16.0001H31.4851V10.4001H34.6691V10.8001H31.9091V12.9761H34.4691V13.3761H31.9091V15.6001Z" stroke="black" stroke-width="2" mask="url(#path-1-outside-1_108_3463)"/>
<path d="M39.7875 10.4001C40.2888 10.4001 40.7048 10.5654 41.0355 10.8961C41.3662 11.2268 41.5315 11.6401 41.5315 12.1361C41.5315 12.6321 41.3662 13.0454 41.0355 13.3761C40.7048 13.7014 40.2888 13.8641 39.7875 13.8641H38.3075V16.0001H37.8835V10.4001H39.7875ZM39.7875 13.4641C40.1715 13.4641 40.4862 13.3388 40.7315 13.0881C40.9822 12.8374 41.1075 12.5201 41.1075 12.1361C41.1075 11.7468 40.9822 11.4268 40.7315 11.1761C40.4862 10.9254 40.1715 10.8001 39.7875 10.8001H38.3075V13.4641H39.7875Z" stroke="black" stroke-width="2" mask="url(#path-1-outside-1_108_3463)"/>
<path d="M43.0028 15.6001H45.6428V16.0001H42.5788V10.4001H43.0028V15.6001Z" stroke="black" stroke-width="2" mask="url(#path-1-outside-1_108_3463)"/>
<path d="M50.4484 16.0001L49.9044 14.5761H47.0964L46.5524 16.0001H46.1044L48.2804 10.4001H48.7284L50.8964 16.0001H50.4484ZM47.2564 14.1761H49.7524L48.5044 10.9201L47.2564 14.1761Z" stroke="black" stroke-width="2" mask="url(#path-1-outside-1_108_3463)"/>
<path d="M54.8809 10.4001L52.8409 13.6961V16.0001H52.4169V13.6961L50.3769 10.4001H50.8569L52.6329 13.2881L54.4009 10.4001H54.8809Z" stroke="black" stroke-width="2" mask="url(#path-1-outside-1_108_3463)"/>
</svg>
